<?xml version="1.0" standalone="no"?>
<!DOCTYPE svg PUBLIC "-//W3C//DTD SVG 20010904//EN"
 "http://www.w3.org/TR/2001/REC-SVG-20010904/DTD/svg10.dtd">
<svg version="1.0" xmlns="http://www.w3.org/2000/svg"
 width="416.000000pt" height="416.000000pt" viewBox="0 0 416.000000 416.000000"
 preserveAspectRatio="xMidYMid meet">

<g transform="translate(0.000000,416.000000) scale(0.100000,-0.100000)"
fill="#000000" stroke="none">
<path d="M1300 3062 l0 -88 331 -428 c182 -236 328 -433 326 -440 -3 -6 -151
-200 -331 -430 l-326 -420 0 -88 0 -88 715 0 716 0 -3 365 c-3 400 -1 388 -65
401 -26 5 -37 1 -57 -19 l-26 -26 0 -286 0 -285 -562 0 c-533 0 -560 1 -546
18 46 52 671 847 675 858 3 7 -144 202 -329 435 -183 233 -339 431 -346 441
-13 17 8 18 547 18 l560 0 3 -251 c3 -250 3 -251 27 -270 30 -24 62 -24 92 0
l24 19 3 326 3 326 -716 0 -715 0 0 -88z"/>
</g>
</svg>
